<svg width="1440" height="634" viewBox="0 0 1440 634" fill="none" xmlns="http://www.w3.org/2000/svg">
<g clip-path="url(#clip0_1211_2682)">
<rect width="1440" height="634" fill="white"/>
<g filter="url(#filter0_d_1211_2682)">
<circle cx="1113.5" cy="323.5" r="1240.5" fill="#4DB251"/>
</g>
<g filter="url(#filter1_d_1211_2682)">
<circle cx="1342" cy="324" r="575" fill="#71C174"/>
</g>
<g filter="url(#filter2_d_1211_2682)">
<circle cx="1341.5" cy="323.5" r="423.5" fill="#94D197"/>
</g>
<g filter="url(#filter3_d_1211_2682)">
<circle cx="1342" cy="323" r="280" fill="#B8E0BA"/>
</g>
<g filter="url(#filter4_d_1211_2682)">
<circle cx="1342" cy="323" r="140" fill="#DBF0DC"/>
</g>
<g filter="url(#filter5_d_1211_2682)">
<circle cx="1342" cy="323" r="47" fill="white"/>
</g>
<path d="M1380.67 331.705V343.144C1380.67 343.358 1380.63 343.571 1380.55 343.769C1380.46 343.967 1380.34 344.148 1380.19 344.299C1380.04 344.451 1379.86 344.572 1379.66 344.654C1379.46 344.736 1379.25 344.778 1379.04 344.778H1365.58C1365.34 344.777 1365.11 344.724 1364.89 344.623C1364.68 344.521 1364.48 344.374 1364.33 344.191L1355.64 333.803C1355.49 333.632 1355.3 333.509 1355.08 333.451C1354.87 333.393 1354.64 333.403 1354.43 333.479C1354.22 333.556 1354.04 333.694 1353.91 333.877C1353.78 334.06 1353.71 334.278 1353.71 334.501V343.144C1353.71 343.577 1353.54 343.993 1353.23 344.3C1352.93 344.606 1352.51 344.778 1352.08 344.778H1338.63C1338.39 344.778 1338.15 344.725 1337.94 344.623C1337.72 344.522 1337.53 344.374 1337.38 344.191L1304.38 304.762C1304.18 304.525 1304.05 304.236 1304.01 303.929C1303.97 303.622 1304.02 303.31 1304.15 303.029C1304.28 302.748 1304.49 302.51 1304.75 302.343C1305.01 302.176 1305.31 302.086 1305.62 302.085L1320.48 302C1320.73 301.997 1320.97 302.049 1321.19 302.15C1321.41 302.252 1321.6 302.401 1321.76 302.587L1344.18 329.483C1344.33 329.668 1344.51 329.818 1344.73 329.922C1344.94 330.027 1345.18 330.083 1345.41 330.088H1350.18C1350.39 330.09 1350.6 330.033 1350.77 329.923C1350.95 329.813 1351.09 329.655 1351.18 329.467C1351.27 329.278 1351.31 329.069 1351.28 328.862C1351.25 328.655 1351.17 328.46 1351.04 328.3L1331.34 304.762C1331.14 304.525 1331.01 304.236 1330.97 303.929C1330.93 303.622 1330.98 303.31 1331.11 303.029C1331.24 302.748 1331.45 302.51 1331.71 302.343C1331.97 302.176 1332.27 302.086 1332.58 302.085L1347.44 302C1347.68 301.997 1347.92 302.049 1348.14 302.15C1348.36 302.252 1348.56 302.401 1348.72 302.587L1371.13 329.483C1371.28 329.668 1371.47 329.818 1371.69 329.923C1371.9 330.027 1372.14 330.083 1372.37 330.088H1379.04C1379.47 330.087 1379.88 330.256 1380.19 330.559C1380.49 330.862 1380.67 331.274 1380.67 331.705Z" fill="#FFBA34"/>
<path d="M1378.9 316.235H1368.64C1368.41 316.233 1368.17 316.179 1367.96 316.078C1367.75 315.976 1367.56 315.83 1367.41 315.648L1358.26 304.677C1358.06 304.439 1357.93 304.149 1357.89 303.84C1357.85 303.532 1357.9 303.219 1358.03 302.938C1358.16 302.657 1358.37 302.419 1358.64 302.253C1358.9 302.087 1359.2 301.999 1359.51 302H1378.9C1379.33 302 1379.75 302.172 1380.05 302.479C1380.36 302.785 1380.53 303.201 1380.53 303.634V314.605C1380.53 314.82 1380.49 315.032 1380.41 315.23C1380.33 315.428 1380.2 315.608 1380.05 315.759C1379.9 315.911 1379.72 316.031 1379.52 316.113C1379.32 316.194 1379.11 316.236 1378.9 316.235Z" fill="#FFBA34"/>
</g>
<defs>
<filter id="filter0_d_1211_2682" x="-407" y="-1197" width="3041" height="3041" filterUnits="userSpaceOnUse" color-interpolation-filters="sRGB">
<feFlood flood-opacity="0" result="BackgroundImageFix"/>
<feColorMatrix in="SourceAlpha" type="matrix" values="0 0 0 0 0 0 0 0 0 0 0 0 0 0 0 0 0 0 127 0" result="hardAlpha"/>
<feMorphology radius="30" operator="dilate" in="SourceAlpha" result="effect1_dropShadow_1211_2682"/>
<feOffset/>
<feGaussianBlur stdDeviation="125"/>
<feComposite in2="hardAlpha" operator="out"/>
<feColorMatrix type="matrix" values="0 0 0 0 1 0 0 0 0 0.65873 0 0 0 0 0 0 0 0 0.4 0"/>
<feBlend mode="normal" in2="BackgroundImageFix" result="effect1_dropShadow_1211_2682"/>
<feBlend mode="normal" in="SourceGraphic" in2="effect1_dropShadow_1211_2682" result="shape"/>
</filter>
<filter id="filter1_d_1211_2682" x="497" y="-521" width="1690" height="1690" filterUnits="userSpaceOnUse" color-interpolation-filters="sRGB">
<feFlood flood-opacity="0" result="BackgroundImageFix"/>
<feColorMatrix in="SourceAlpha" type="matrix" values="0 0 0 0 0 0 0 0 0 0 0 0 0 0 0 0 0 0 127 0" result="hardAlpha"/>
<feMorphology radius="20" operator="dilate" in="SourceAlpha" result="effect1_dropShadow_1211_2682"/>
<feOffset/>
<feGaussianBlur stdDeviation="125"/>
<feComposite in2="hardAlpha" operator="out"/>
<feColorMatrix type="matrix" values="0 0 0 0 0.220333 0 0 0 0 0.961 0 0 0 0 0.153 0 0 0 0.2 0"/>
<feBlend mode="normal" in2="BackgroundImageFix" result="effect1_dropShadow_1211_2682"/>
<feBlend mode="normal" in="SourceGraphic" in2="effect1_dropShadow_1211_2682" result="shape"/>
</filter>
<filter id="filter2_d_1211_2682" x="648" y="-370" width="1387" height="1387" filterUnits="userSpaceOnUse" color-interpolation-filters="sRGB">
<feFlood flood-opacity="0" result="BackgroundImageFix"/>
<feColorMatrix in="SourceAlpha" type="matrix" values="0 0 0 0 0 0 0 0 0 0 0 0 0 0 0 0 0 0 127 0" result="hardAlpha"/>
<feMorphology radius="20" operator="dilate" in="SourceAlpha" result="effect1_dropShadow_1211_2682"/>
<feOffset/>
<feGaussianBlur stdDeviation="125"/>
<feComposite in2="hardAlpha" operator="out"/>
<feColorMatrix type="matrix" values="0 0 0 0 0.220333 0 0 0 0 0.961 0 0 0 0 0.153 0 0 0 0.2 0"/>
<feBlend mode="normal" in2="BackgroundImageFix" result="effect1_dropShadow_1211_2682"/>
<feBlend mode="normal" in="SourceGraphic" in2="effect1_dropShadow_1211_2682" result="shape"/>
</filter>
<filter id="filter3_d_1211_2682" x="792" y="-227" width="1100" height="1100" filterUnits="userSpaceOnUse" color-interpolation-filters="sRGB">
<feFlood flood-opacity="0" result="BackgroundImageFix"/>
<feColorMatrix in="SourceAlpha" type="matrix" values="0 0 0 0 0 0 0 0 0 0 0 0 0 0 0 0 0 0 127 0" result="hardAlpha"/>
<feMorphology radius="20" operator="dilate" in="SourceAlpha" result="effect1_dropShadow_1211_2682"/>
<feOffset/>
<feGaussianBlur stdDeviation="125"/>
<feComposite in2="hardAlpha" operator="out"/>
<feColorMatrix type="matrix" values="0 0 0 0 0.220333 0 0 0 0 0.961 0 0 0 0 0.153 0 0 0 0.2 0"/>
<feBlend mode="normal" in2="BackgroundImageFix" result="effect1_dropShadow_1211_2682"/>
<feBlend mode="normal" in="SourceGraphic" in2="effect1_dropShadow_1211_2682" result="shape"/>
</filter>
<filter id="filter4_d_1211_2682" x="932" y="-87" width="820" height="820" filterUnits="userSpaceOnUse" color-interpolation-filters="sRGB">
<feFlood flood-opacity="0" result="BackgroundImageFix"/>
<feColorMatrix in="SourceAlpha" type="matrix" values="0 0 0 0 0 0 0 0 0 0 0 0 0 0 0 0 0 0 127 0" result="hardAlpha"/>
<feMorphology radius="20" operator="dilate" in="SourceAlpha" result="effect1_dropShadow_1211_2682"/>
<feOffset/>
<feGaussianBlur stdDeviation="125"/>
<feComposite in2="hardAlpha" operator="out"/>
<feColorMatrix type="matrix" values="0 0 0 0 0.220333 0 0 0 0 0.961 0 0 0 0 0.153 0 0 0 0.2 0"/>
<feBlend mode="normal" in2="BackgroundImageFix" result="effect1_dropShadow_1211_2682"/>
<feBlend mode="normal" in="SourceGraphic" in2="effect1_dropShadow_1211_2682" result="shape"/>
</filter>
<filter id="filter5_d_1211_2682" x="1025" y="6" width="634" height="634" filterUnits="userSpaceOnUse" color-interpolation-filters="sRGB">
<feFlood flood-opacity="0" result="BackgroundImageFix"/>
<feColorMatrix in="SourceAlpha" type="matrix" values="0 0 0 0 0 0 0 0 0 0 0 0 0 0 0 0 0 0 127 0" result="hardAlpha"/>
<feMorphology radius="20" operator="dilate" in="SourceAlpha" result="effect1_dropShadow_1211_2682"/>
<feOffset/>
<feGaussianBlur stdDeviation="125"/>
<feComposite in2="hardAlpha" operator="out"/>
<feColorMatrix type="matrix" values="0 0 0 0 0.220333 0 0 0 0 0.961 0 0 0 0 0.153 0 0 0 0.2 0"/>
<feBlend mode="normal" in2="BackgroundImageFix" result="effect1_dropShadow_1211_2682"/>
<feBlend mode="normal" in="SourceGraphic" in2="effect1_dropShadow_1211_2682" result="shape"/>
</filter>
<clipPath id="clip0_1211_2682">
<rect width="1440" height="634" fill="white"/>
</clipPath>
</defs>
</svg>
